<?xml version="1.0" encoding="utf-8"?>
<!-- Generator: Adobe Illustrator 23.0.0, SVG Export Plug-In . SVG Version: 6.00 Build 0)  -->
<svg version="1.1" id="Layer_1" xmlns="http://www.w3.org/2000/svg" xmlns:xlink="http://www.w3.org/1999/xlink" x="0px" y="0px"
	 viewBox="0 0 64 64" style="enable-background:new 0 0 64 64;" xml:space="preserve">
<g>
	<path d="M21.3,37.3c7.5,0,13.3-5.9,13.3-13.3s-5.9-13.3-13.3-13.3S8,16.5,8,24S13.9,37.3,21.3,37.3z M21.3,16c4.5,0,8,3.5,8,8
		s-3.5,8-8,8s-8-3.5-8-8S16.8,16,21.3,16z"/>
	<path d="M21.3,40c-7.7,0-14.9,3.2-20.5,8.8c-1.1,1.1-1.1,2.7,0,3.7s2.7,1.1,3.7,0c4.5-4.5,10.7-7.2,16.8-7.2s12,2.7,16.8,7.2
		c0.5,0.5,1.3,0.8,1.9,0.8c0.8,0,1.3-0.3,1.9-0.8c1.1-1.1,1.1-2.7,0-3.7C36.2,43.2,28.8,40,21.3,40z"/>
	<path d="M48,37.3c4.5,0,8-3.5,8-8s-3.5-8-8-8s-8,3.5-8,8S43.4,37.3,48,37.3z M48,26.7c1.6,0,2.7,1.1,2.7,2.7c0,1.6-1.1,2.7-2.7,2.7
		c-1.6,0-2.7-1.1-2.7-2.7C45.3,27.7,46.4,26.7,48,26.7z"/>
	<path d="M63.2,46.1c-5.6-5.3-13.3-7.2-21.1-5.3c-1.3,0.3-2.4,1.9-1.9,3.2c0.3,1.3,1.9,2.4,3.2,1.9c5.9-1.6,12,0,16.3,4
		c0.5,0.5,1.1,0.8,1.9,0.8c0.8,0,1.3-0.3,1.9-0.8C64.2,48.8,64.2,46.9,63.2,46.1z"/>
</g>
</svg>
