<?xml version="1.0" encoding="utf-8"?>
<!-- Generator: Adobe Illustrator 23.0.0, SVG Export Plug-In . SVG Version: 6.00 Build 0)  -->
<svg version="1.1" id="Layer_1" xmlns="http://www.w3.org/2000/svg" xmlns:xlink="http://www.w3.org/1999/xlink" x="0px" y="0px"
	 viewBox="0 0 64 64" style="enable-background:new 0 0 64 64;" xml:space="preserve">
<g>
	<path d="M15,13.3C15,13.3,14.8,13.3,15,13.3C7.8,13.3,1.6,17.8,0.3,24c-0.8,3.7,0,7.5,2.1,10.7c2.1,2.9,5.6,5.1,9.6,5.9l3.5,8.3
		c0.3,1.1,1.6,1.9,2.9,1.9l0,0c1.3,0,2.7-0.8,3.2-2.1c0.5-1.6,1.3-3.2,1.9-4.5c1.6-3.7,3.5-7.8,4.8-12c1.6-4.5,0.8-9.4-1.9-13.1
		C24.1,15.4,19.8,13.3,15,13.3z M23.3,30.4c-1.3,3.7-2.9,7.8-4.5,11.5c0,0,0,0.3-0.3,0.3l-2.9-7h-1.6c-2.9-0.3-5.6-1.6-7.5-3.7
		c-1.3-1.9-1.9-4-1.3-6.4c1.1-3.7,5.1-6.4,9.6-6.4l0,0c4,0,6.2,1.9,7.2,3.5C23.8,24.5,24.4,27.5,23.3,30.4z"/>
	<path d="M61.3,19.2c-2.7-3.7-6.7-5.6-11.8-5.9c0,0,0,0-0.3,0c-7,0-13.1,4.5-14.7,10.7c-0.8,3.7,0,7.5,2.1,10.7
		c2.1,2.9,5.6,5.1,9.6,5.9l3.5,8.3c0.8,1.1,2.1,1.9,3.5,1.9l0,0c1.3,0,2.7-0.8,3.2-2.1c0.5-1.6,1.3-3.2,1.9-4.5
		c1.6-3.7,3.5-7.8,4.8-12C64.8,27.7,64,22.6,61.3,19.2z M58.1,30.4c-1.3,3.7-2.9,7.8-4.5,11.5c0,0,0,0.3-0.3,0.3l-2.9-7h-1.6
		c-2.9-0.3-5.6-1.6-7.5-3.7c-1.3-1.9-1.9-4-1.3-6.4c0.8-3.7,4.8-6.4,9.4-6.4l0,0c4,0,6.2,1.9,7.2,3.5C58.6,24.5,59.2,27.5,58.1,30.4
		z"/>
</g>
</svg>
