<?xml version="1.0" encoding="utf-8"?>
<!-- Generator: Adobe Illustrator 22.0.1, SVG Export Plug-In . SVG Version: 6.00 Build 0)  -->
<svg version="1.1" id="Layer_1" xmlns="http://www.w3.org/2000/svg" xmlns:xlink="http://www.w3.org/1999/xlink" x="0px" y="0px"
	 viewBox="0 0 64 64" style="enable-background:new 0 0 64 64;" xml:space="preserve">
<path d="M45,0C34.3,0,25.7,8.6,25.7,19.3c0,1.9,0.3,3.5,0.8,5.1L2.7,47.9C0.8,49.8,0,52.2,0,54.6s1.1,4.8,2.7,6.7
	C4.6,63.2,7,64,9.4,64s4.8-0.8,6.7-2.7l23.6-23.6c1.6,0.5,3.5,0.8,5.1,0.8C55.4,38.6,64,30,64,19.3S55.7,0,45,0z M6.4,57.6
	C5.9,57,5.4,56,5.4,54.6s0.5-2.1,1.1-2.9l0,0l5.9,5.9C11,59.2,8.3,59.2,6.4,57.6z M16.3,53.8l-5.9-5.9l18.2-18.2
	c1.6,2.4,3.5,4.3,5.9,5.9L16.3,53.8z M31.1,19.3c0-1.1,0-1.9,0.3-2.9l16.6,16.6c-0.8,0.3-1.9,0.3-2.9,0.3
	C37.2,33.2,31.1,27,31.1,19.3z M53,30.8L33.7,11.2c2.4-3.5,6.4-5.9,11.2-5.9c7.8,0,13.9,6.2,13.9,13.9C58.9,24.1,56.5,28.1,53,30.8z
	"/>
</svg>
