<?xml version="1.0" encoding="utf-8"?>
<!-- Generator: Adobe Illustrator 22.0.1, SVG Export Plug-In . SVG Version: 6.00 Build 0)  -->
<svg version="1.1" id="Layer_1" xmlns="http://www.w3.org/2000/svg" xmlns:xlink="http://www.w3.org/1999/xlink" x="0px" y="0px"
	 viewBox="0 0 64 64" style="enable-background:new 0 0 64 64;" xml:space="preserve">
<g>
	<path d="M56.3,22.7c1.6-1.9,2.4-4.3,2.4-6.7c0-5.9-4.8-10.7-10.7-10.7c-3.2,0-6.4,1.6-8.3,4c-1.6-0.5-3.2-0.8-5.1-1.1V5.3h2.7
		c1.6,0,2.7-1.1,2.7-2.7S38.9,0,37.3,0H26.7C25.1,0,24,1.1,24,2.7s1.1,2.7,2.7,2.7h2.7v2.9c-1.6,0.3-3.5,0.5-5.1,1.1
		c-1.9-2.4-5.1-4-8.3-4C10.1,5.3,5.3,10.1,5.3,16c0,2.4,0.8,4.8,2.4,6.7c-2.4,4-3.5,8.5-3.5,13.3c0,15.5,12.3,28,27.7,28
		s27.7-12.5,27.7-28C59.7,31.2,58.7,26.7,56.3,22.7z M48,10.7c2.9,0,5.3,2.4,5.3,5.3c0,0.5-0.3,1.3-0.3,1.9
		c-2.1-2.7-4.8-4.8-7.7-6.4C45.9,10.9,46.9,10.7,48,10.7z M10.7,16c0-2.9,2.4-5.3,5.3-5.3c1.1,0,2.1,0.3,2.9,0.8
		c-2.9,1.6-5.6,3.7-8,6.4C10.9,17.3,10.7,16.5,10.7,16z M32,58.7C19.5,58.7,9.6,48.5,9.6,36S19.7,13.3,32,13.3
		c12.5,0,22.4,10.1,22.4,22.7S44.5,58.7,32,58.7z"/>
	<path d="M42.7,34.7h-8V24c0-1.6-1.1-2.7-2.7-2.7c-1.6,0-2.7,1.1-2.7,2.7v10.7c-1.6,0-2.7,1.1-2.7,2.7c0,1.6,1.1,2.7,2.7,2.7
		c0,1.6,1.1,2.7,2.7,2.7c1.6,0,2.7-1.1,2.7-2.7h8c1.6,0,2.7-1.1,2.7-2.7C45.3,35.7,44.3,34.7,42.7,34.7z"/>
</g>
</svg>
